<?xml version="1.0" encoding="utf-8"?>
<!-- Generator: Adobe Illustrator 25.4.1, SVG Export Plug-In . SVG Version: 6.00 Build 0)  -->
<svg version="1.1" xmlns="http://www.w3.org/2000/svg" xmlns:xlink="http://www.w3.org/1999/xlink" x="0px" y="0px"
	 viewBox="0 0 919.111 844.444" style="enable-background:new 0 0 919.111 844.444;" xml:space="preserve">
<style type="text/css">
	.st0{fill:#FFFFFF;}
	.st1{fill:#FF0000;}
	.st2{fill:#2D2D2D;}
	.st3{fill:#711611;stroke:#211915;stroke-width:4;stroke-miterlimit:10;}
	.st4{fill:#2D2D2D;stroke:#211915;stroke-width:4;stroke-miterlimit:10;}
	.st5{fill:#380000;}
	.st6{clip-path:url(#SVGID_00000108300474369403247990000004091520416294204303_);}
	.st7{fill:#A52B31;stroke:#231F20;stroke-width:2;stroke-miterlimit:10;}
	.st8{fill:#8D181C;}
	.st9{opacity:0.27;}
	.st10{fill:#231F20;}
	.st11{fill:#F7941E;}
	.st12{fill:#58595B;}
	.st13{fill:#272425;}
	.st14{fill:#939598;stroke:#211915;stroke-width:4;stroke-miterlimit:10;}
	.st15{clip-path:url(#SVGID_00000095331444533216142450000015602532896537596341_);}
	.st16{opacity:0.8;}
	.st17{fill:none;stroke:#F70014;stroke-width:5;stroke-linecap:round;stroke-miterlimit:10;}
	.st18{fill:#F70014;}
	.st19{fill:#454545;}
	.st20{fill:#A8A8A8;}
	.st21{fill:#231F20;stroke:#FFFFFF;stroke-miterlimit:10;}
	.st22{display:none;}
	.st23{display:inline;}
	.st24{fill:#606060;}
	.st25{fill:#9E9E9E;}
	.st26{fill:#29A8A8;}
	.st27{fill:#66CDD8;}
	.st28{fill:#F7852F;}
	.st29{fill:#FCB144;}
	.st30{fill:#FF4C22;}
	.st31{fill:#FFC840;}
	.st32{fill:#F4C287;}
	.st33{fill:#E0AA75;}
	.st34{fill:#D39863;}
	.st35{fill:#FFDAB8;}
	.st36{fill:#444444;}
	.st37{fill:#BFBFBF;}
	.st38{fill:#2B2B2B;}
	.st39{fill:none;stroke:#F70014;stroke-width:3;stroke-linecap:round;stroke-miterlimit:10;}
	.st40{fill:#454542;}
	.st41{fill:none;stroke:#F70014;stroke-width:2;stroke-linecap:round;stroke-miterlimit:10;}
	.st42{fill:#141042;}
	.st43{fill:#E94822;}
	.st44{fill:#FDC70C;}
	.st45{fill-rule:evenodd;clip-rule:evenodd;fill:none;stroke:#FFFFFF;stroke-width:0.576;stroke-miterlimit:10;}
	.st46{fill:none;stroke:#FFFFFF;stroke-width:0.576;stroke-miterlimit:10;}
	.st47{fill:url(#SVGID_00000000217185718285853730000012411891166105115318_);}
	.st48{fill:url(#SVGID_00000035525252935188201410000001888648321355386247_);}
	.st49{fill:url(#SVGID_00000047742309005319351100000006807561317139414913_);}
	.st50{fill:url(#SVGID_00000004520109278299715740000004248053456193694344_);}
	.st51{fill:url(#SVGID_00000093150279124040098680000009755058499335114912_);}
	.st52{fill:url(#SVGID_00000132058091412211969460000005331929308383720091_);}
	.st53{fill:#2AFCF8;}
	.st54{fill:#FCC10D;}
	.st55{fill:url(#SVGID_00000103261146501016239380000001300683865272711327_);}
	.st56{fill:url(#SVGID_00000029738857667806793910000008931903605733259937_);}
	.st57{fill:url(#SVGID_00000128464669424991338320000004349794368361658781_);}
	.st58{fill:url(#SVGID_00000091732770198983955510000005690411964132022428_);}
	.st59{fill:url(#SVGID_00000112607643096966575930000007237268783319158674_);}
	.st60{fill:url(#SVGID_00000136373157926285920590000009782160543056502939_);}
	.st61{fill:#E5018A;}
	.st62{fill:url(#SVGID_00000181794588794809082920000009413168822638750868_);}
	.st63{fill:url(#SVGID_00000065053970210474743680000012446797761008617642_);}
	.st64{fill:url(#SVGID_00000144334238002492039840000001696451147448767162_);}
	.st65{fill:url(#SVGID_00000057115281481157553490000006031235538431078808_);}
	.st66{fill:url(#SVGID_00000021117888586126169890000011344307933183203461_);}
	.st67{fill:url(#SVGID_00000167369365847705785310000013775882138933660848_);}
	.st68{fill:#757575;}
	.st69{fill:#201813;}
	.st70{fill:#DB9600;}
	.st71{fill:#FEEE00;}
</style>
<g id="Layer_1">
</g>
<g id="Capa_2">
</g>
<g id="Capa_3">
	<g>
		<path class="st0" d="M140.155,696.524c0.239,39.409,32.291,71.538,71.618,71.788c39.268,0.25,72.191-32.788,71.958-72.21
			c-0.235-39.737-33.124-72.333-72.379-71.734C171.864,624.971,139.917,657.348,140.155,696.524z M706.871,696.359
			c0.03-39.232-32.081-71.597-71.442-72.008c-39.156-0.409-72.315,32.532-72.396,71.92c-0.081,39.196,33.32,72.475,72.304,72.042
			C674.731,767.876,706.841,735.577,706.871,696.359z"/>
		<path class="st0" d="M100.159,200.862c3.943-10.214,7.337-21.237,17.223-27.127c7.715-4.597,16.577-7.442,25.186-10.287
			c3.64-1.203,7.94-0.508,11.94-0.508c163.651-0.017,327.303-0.014,490.954-0.015c2.502,0,5.008,0.075,7.506-0.032
			c14.657-0.631,23.446-8.942,25.322-23.568c2.895-22.56,5.275-45.213,9.094-67.619c4.265-25.022,21.93-38.909,47.344-38.921
			c31.029-0.016,62.058-0.091,93.086,0.031c18.922,0.074,33.299,9.9,38.917,26.171c8.127,23.538-8.329,48.949-33.227,50.289
			c-15.971,0.859-32.015,0.343-48.027,0.438c-19.183,0.113-27.68,8.53-29.168,27.526c-4.123,52.613-8.645,105.194-12.896,157.797
			c-4.271,52.854-8.39,105.72-12.609,158.578c-2.268,28.42-3.824,56.926-7.138,85.224c-3.044,25.983-21.33,41.112-47.517,41.725
			c-1,0.023-2.002,0.009-3.003,0.009c-165.904,0-331.807,0.01-497.711-0.009c-25.567-0.003-44.562-12.433-50.568-34.181
			c-2.366-8.568-2.777-17.757-3.406-26.711c-6.573-93.574-12.999-187.158-19.512-280.737c-0.397-5.698-1.185-11.368-1.791-17.051
			C100.159,214.878,100.159,207.87,100.159,200.862z"/>
		<path class="st0" d="M140.155,696.524c-0.238-39.176,31.709-71.553,71.196-72.156c39.255-0.599,72.144,31.997,72.379,71.734
			c0.233,39.422-32.69,72.46-71.958,72.21C172.446,768.062,140.394,735.934,140.155,696.524z"/>
		<path class="st0" d="M706.871,696.359c-0.03,39.218-32.14,71.517-71.534,71.955c-38.984,0.433-72.385-32.846-72.304-72.042
			c0.081-39.388,33.24-72.329,72.396-71.92C674.79,624.762,706.901,657.127,706.871,696.359z"/>
	</g>
</g>
</svg>
