<?xml version="1.0" standalone="no"?>
<!DOCTYPE svg PUBLIC "-//W3C//DTD SVG 20010904//EN"
 "http://www.w3.org/TR/2001/REC-SVG-20010904/DTD/svg10.dtd">
<svg version="1.0" xmlns="http://www.w3.org/2000/svg"
 width="48.000000pt" height="48.000000pt" viewBox="0 0 48.000000 48.000000"
 preserveAspectRatio="xMidYMid meet">

<g transform="translate(0.000000,48.000000) scale(0.100000,-0.100000)"
fill="#000000" stroke="none">
<path d="M34 409 c-8 -14 5 -27 35 -31 32 -4 49 -52 50 -141 1 -63 4 -71 30
-97 23 -20 27 -30 18 -39 -8 -8 -7 -15 6 -28 16 -16 18 -16 34 -1 13 14 14 20
3 32 -11 14 -5 16 55 16 60 0 66 -2 55 -16 -11 -12 -10 -18 3 -32 16 -15 18
-15 34 0 13 14 14 20 3 32 -8 11 -9 16 -1 16 6 0 11 9 11 20 0 19 -7 20 -105
20 -98 0 -105 1 -105 20 0 19 7 20 94 20 65 0 97 4 105 13 6 8 26 48 46 90 30
67 32 77 17 77 -13 0 -28 -21 -49 -70 l-31 -70 -85 0 -85 0 -27 80 c-16 48
-34 84 -45 90 -25 13 -57 13 -66 -1z"/>
<path d="M240 380 c0 -31 -4 -40 -17 -40 -14 0 -12 -5 10 -27 l27 -28 27 28
c22 22 24 27 10 27 -13 0 -17 9 -17 40 0 33 -3 40 -20 40 -17 0 -20 -7 -20
-40z"/>
</g>
</svg>
