<?xml version="1.0" standalone="no"?>
<!DOCTYPE svg PUBLIC "-//W3C//DTD SVG 20010904//EN"
 "http://www.w3.org/TR/2001/REC-SVG-20010904/DTD/svg10.dtd">
<svg version="1.0" xmlns="http://www.w3.org/2000/svg"
 width="96.000000pt" height="96.000000pt" viewBox="0 0 96.000000 96.000000"
 preserveAspectRatio="xMidYMid meet">

<g transform="translate(0.000000,96.000000) scale(0.100000,-0.100000)"
fill="#000000" stroke="none">
<path d="M73 829 c-34 -35 -6 -69 57 -69 l46 0 29 -87 c25 -73 30 -110 35
-219 7 -162 16 -181 103 -208 16 -5 16 -7 -3 -26 -11 -11 -20 -29 -20 -40 0
-26 34 -60 60 -60 26 0 60 34 60 60 0 11 -9 29 -20 40 -20 20 -20 20 110 20
130 0 130 0 110 -20 -25 -25 -25 -55 0 -80 25 -25 55 -25 80 0 25 25 25 55 0
80 -20 20 -20 20 0 20 17 0 20 7 20 40 l0 40 -198 0 c-213 0 -222 2 -222 52
l0 28 193 0 c105 0 197 4 204 8 10 6 163 333 163 348 0 2 -17 4 -38 4 l-38 0
-63 -140 -63 -140 -167 2 -166 3 -53 155 c-29 85 -61 164 -72 174 -24 24 -128
35 -147 15z"/>
</g>
</svg>
